# xmcd CD database file
#
# Track frame offsets:
#	150
#	15162
#	30120
#	42087
#	57092
#	69907
#	83862
#	97977
#	112720
#	124487
#	137750
#	153697
#
# Disc length: 2411 seconds
#
# Revision: 0
# Processed by: cddbd v1.5.2PL0 Copyright (c) Steve Scherf et al.
# Submitted via: CDex 1.74
#
DISCID=8609690c
DTITLE=Aaron Barker and Curtis Wayne - Straigt From The Horse's Mouth
DYEAR=1998
DGENRE=Country
TTITLE0=All The Sleep I Need
TTITLE1=Baby Blue
TTITLE2=Love Bug
TTITLE3=Daytime Honky-Tonkin'
TTITLE4=What A Friday Night Is For
TTITLE5=Just Look At Me
TTITLE6=Love Without End, Amen
TTITLE7=Next In Line
TTITLE8=Good Ole Boy Like Me
TTITLE9=Bigger Man Than Me
TTITLE10=Easy Come, Easy Go
TTITLE11=We Just Came In Here To Have A Good Time
EXTD=YEAR: 1998
EXTT0=
EXTT1=
EXTT2=
EXTT3=
EXTT4=
EXTT5=
EXTT6=
EXTT7=
EXTT8=
EXTT9=
EXTT10=
EXTT11=
PLAYORDER=
